# This file uses centimeters as units for non-parametric coordinates.

mtllib SpaceShioExport.mtl
g default
v -0.500000 2.499850 1.702284
v 0.500000 2.499850 1.702284
v -0.500000 3.499850 1.702284
v 0.500000 3.499850 1.702284
v -0.500000 3.499850 0.702284
v 0.500000 3.499850 0.702284
v -0.500000 2.499850 0.702284
v 0.500000 2.499850 0.702284
v -0.500000 3.499850 -1.734347
v 0.500000 3.499850 -1.734347
v 0.068207 2.499850 -3.074478
v -0.291095 2.499850 -3.074478
v -2.017169 0.982681 0.702284
v -2.017169 0.982681 1.702284
v -1.864044 4.863894 1.702284
v -1.864044 4.863894 0.702284
v 1.652339 4.652189 1.702284
v 1.652339 4.652189 0.702284
v 2.035197 0.964653 0.702284
v 2.035197 0.964653 1.702284
v 1.923482 4.923332 1.702284
v 1.923482 4.923332 0.702284
v -0.500000 3.499850 0.702284
v -0.500000 2.499850 0.702284
v -3.392422 2.914120 0.702284
v -3.392422 2.914120 1.702284
v -3.392422 3.085580 1.702284
v -3.392422 3.085580 0.702284
v 3.102547 2.908271 0.702284
v 3.102547 2.908271 1.702284
v 3.102547 3.091430 0.702284
v 3.102547 3.091430 1.702284
v -0.123033 3.661601 -0.003625
v 0.123033 3.661601 -0.003625
v 0.123033 3.661601 -1.028437
v -0.123033 3.661601 -1.028437
v 0.500000 3.499850 0.702284
v 0.500000 2.499850 0.702284
v 0.068207 2.499850 -3.074478
v 0.500000 3.499850 -1.734347
v 0.819502 3.307729 -0.032529
v 0.873236 2.642614 -0.075302
v 0.529320 2.504274 -2.250443
v 0.873236 3.203509 -1.441995
v -0.783768 3.384076 -0.012923
v -0.807866 2.700530 -0.067293
v -0.807866 3.251597 -1.410040
v -0.636792 2.500222 -2.230748
v -0.500000 2.499850 1.702284
v 0.500000 2.499850 1.702284
v 0.500000 3.499850 1.702284
v -0.500000 3.499850 1.702284
v -0.285778 3.314740 4.502763
v 0.285779 3.314740 4.502763
v 0.285779 3.570500 4.502763
v -0.285778 3.570500 4.502763
v -0.217352 3.606253 1.699600
v 0.217352 3.606253 1.699600
v -0.124229 3.676903 4.500078
v 0.124229 3.676903 4.500078
v -0.335777 2.494951 2.392797
v 0.335778 2.494951 2.392797
v 0.191916 2.917466 3.844827
v -0.191915 2.917466 3.844827
v -0.500000 2.499850 0.702284
v 0.500000 2.499850 0.702284
v -0.291095 2.499850 -3.074478
v 0.068207 2.499850 -3.074478
v -0.500000 2.395355 1.604221
v 0.500000 2.395355 1.604221
v -0.291095 2.395355 -2.629439
v 0.068207 2.395355 -2.629439
vt 0.375000 0.000000
vt 0.625000 0.000000
vt 0.375000 0.250000
vt 0.625000 0.250000
vt 0.375000 0.500000
vt 0.625000 0.500000
vt 0.375000 0.750000
vt 0.625000 0.750000
vt 0.375000 1.000000
vt 0.625000 1.000000
vt 0.875000 0.000000
vt 0.875000 0.250000
vt 0.125000 0.000000
vt 0.125000 0.250000
vt 0.375000 0.500000
vt 0.625000 0.500000
vt 0.625000 0.750000
vt 0.375000 0.750000
vt 0.000000 0.000000
vt 1.000000 0.000000
vt 1.000000 1.000000
vt 0.000000 1.000000
vt 0.000000 0.000000
vt 1.000000 0.000000
vt 1.000000 1.000000
vt 0.000000 1.000000
vt 0.000000 0.000000
vt 1.000000 0.000000
vt 1.000000 1.000000
vt 0.000000 1.000000
vt 0.000000 0.000000
vt 1.000000 0.000000
vt 1.000000 1.000000
vt 0.000000 1.000000
vt 0.000000 0.000000
vt 1.000000 0.000000
vt 1.000000 1.000000
vt 0.000000 1.000000
vt 0.000000 0.000000
vt 1.000000 0.000000
vt 1.000000 1.000000
vt 0.000000 1.000000
vt 0.125000 0.000000
vt 0.375000 0.000000
vt 0.375000 0.250000
vt 0.125000 0.250000
vt 0.625000 0.000000
vt 0.875000 0.000000
vt 0.875000 0.250000
vt 0.625000 0.250000
vt 0.375000 0.500000
vt 0.625000 0.500000
vt 0.625000 0.500000
vt 0.375000 0.500000
vt 0.625000 0.500000
vt 0.625000 0.750000
vt 0.625000 0.750000
vt 0.625000 0.500000
vt 0.625000 0.500000
vt 0.625000 0.750000
vt 0.625000 0.750000
vt 0.625000 0.500000
vt 0.375000 0.750000
vt 0.375000 0.500000
vt 0.375000 0.500000
vt 0.375000 0.750000
vt 0.375000 0.000000
vt 0.625000 0.000000
vt 0.625000 0.250000
vt 0.375000 0.250000
vt 0.375000 0.000000
vt 0.625000 0.000000
vt 0.625000 0.250000
vt 0.375000 0.250000
vt 0.625000 0.250000
vt 0.375000 0.250000
vt 0.375000 0.250000
vt 0.625000 0.250000
vt 0.375000 0.000000
vt 0.625000 0.000000
vt 0.625000 0.000000
vt 0.375000 0.000000
vt 0.625000 0.750000
vt 0.375000 0.750000
vt 0.375000 0.750000
vt 0.625000 0.750000
vt 0.625000 0.750000
vt 0.375000 0.750000
vt 0.375000 0.750000
vt 0.625000 0.750000
vn 0.000001 0.000001 1.000000
vn 0.000001 0.000001 1.000000
vn 0.000001 0.002515 0.999997
vn 0.000001 0.002515 0.999997
vn 0.000000 1.000000 0.000000
vn 0.000000 1.000000 0.000000
vn 0.061375 0.997064 0.045785
vn -0.107343 0.993458 0.038974
vn -0.153356 0.911115 -0.382559
vn 0.065071 0.893607 -0.444109
vn 0.000000 0.801461 -0.598047
vn 0.000000 0.801461 -0.598047
vn 0.000000 -1.000000 0.000000
vn 0.000000 -1.000000 0.000000
vn 0.000000 -1.000000 0.000000
vn 0.000000 -1.000000 0.000000
vn 1.000000 0.000001 0.000000
vn 1.000000 0.000001 0.000000
vn 1.000000 0.000001 0.000000
vn 1.000000 0.000001 0.000000
vn -1.000000 -0.000000 0.000000
vn -1.000000 -0.000000 0.000000
vn -1.000000 -0.000000 0.000000
vn -1.000000 -0.000000 0.000000
vn -0.236237 0.969405 0.066686
vn 0.236237 0.969405 0.066686
vn 0.236237 0.969405 -0.066686
vn -0.236237 0.969405 -0.066686
vn 0.983658 -0.166564 -0.068358
vn 0.983658 -0.166564 -0.068358
vn 0.983658 -0.166564 -0.068358
vn 0.983658 -0.166564 -0.068358
vn 0.000000 -1.000000 0.000000
vn 0.000000 -1.000000 0.000000
vn 0.000000 -0.999928 -0.012003
vn 0.000000 -0.999932 -0.011647
vn -0.992247 -0.053185 0.112330
vn -0.989184 -0.047877 0.138646
vn -0.996102 -0.081604 -0.033491
vn -0.996102 -0.081604 -0.033491
vn 0.707107 -0.707107 0.000000
vn 0.707107 -0.707107 0.000000
vn 0.707107 -0.707107 0.000000
vn 0.707107 -0.707107 0.000000
vn 0.707107 0.707107 0.000000
vn 0.707107 0.707107 0.000000
vn 0.707107 0.707107 0.000000
vn 0.707107 0.707107 0.000000
vn 0.707107 -0.707107 0.000000
vn 0.707107 -0.707107 0.000000
vn 0.707107 -0.707107 0.000000
vn 0.707107 -0.707107 0.000000
vn 0.707107 0.707107 0.000000
vn 0.707107 0.707107 0.000000
vn 0.707107 0.707107 0.000000
vn 0.707107 0.707107 0.000000
vn 0.707107 -0.707107 0.000000
vn 0.707107 -0.707107 0.000000
vn 0.000000 0.000000 0.000000
vn 0.000000 0.000000 0.000000
vn 0.000000 0.000000 0.000000
vn 0.000000 0.000000 0.000000
vn -0.141779 -0.989898 0.000000
vn -0.141779 -0.989898 0.000000
vn -0.141779 -0.989898 0.000000
vn -0.141779 -0.989898 0.000000
vn 0.000000 0.000001 1.000000
vn 0.000000 0.000001 1.000000
vn 0.000000 0.000001 1.000000
vn 0.000000 0.000001 1.000000
vn -0.141779 0.989898 0.000000
vn -0.141779 0.989898 0.000000
vn -0.141779 0.989898 0.000000
vn -0.141779 0.989898 0.000000
vn 0.000000 0.000001 -1.000000
vn 0.000000 0.000001 -1.000000
vn 0.000000 0.000001 -1.000000
vn 0.000000 0.000001 -1.000000
vn 0.155034 -0.987909 0.000000
vn 0.155034 -0.987909 0.000000
vn 0.155034 -0.987909 0.000000
vn 0.155034 -0.987909 0.000000
vn 0.000000 0.000000 -1.000000
vn 0.000000 0.000000 -1.000000
vn 0.000000 0.000000 -1.000000
vn 0.000000 0.000000 -1.000000
vn 0.155033 0.987909 0.000000
vn 0.155033 0.987909 0.000000
vn 0.155033 0.987909 0.000000
vn 0.155033 0.987909 0.000000
vn 0.000000 0.000000 1.000000
vn 0.000000 0.000000 1.000000
vn 0.000000 0.000000 1.000000
vn 0.000000 0.000000 1.000000
vn 0.000000 0.000000 0.000000
vn 0.000000 0.000000 0.000000
vn 0.000000 0.000000 0.000000
vn 0.000000 0.000000 0.000000
vn 0.000000 0.000000 0.000000
vn 0.000000 0.000000 0.000000
vn 0.000000 0.000000 0.000000
vn 0.000000 0.000000 0.000000
vn 0.000000 0.000000 0.000000
vn 0.000000 0.000000 0.000000
vn 0.000000 0.000000 0.000000
vn 0.000000 0.000000 0.000000
vn 0.000000 0.000000 0.000000
vn 0.000000 0.000000 0.000000
vn 0.000000 0.000000 0.000000
vn 0.000000 0.000000 0.000000
vn 0.909238 0.018659 0.415858
vn 0.909238 0.018659 0.415858
vn 0.909238 0.018659 0.415858
vn 0.909238 0.018659 0.415858
vn 0.173715 -0.984796 0.000249
vn 0.173715 -0.984796 0.000249
vn 0.173715 -0.984796 0.000249
vn 0.173715 -0.984796 0.000249
vn 0.800883 0.294016 -0.521672
vn 0.800883 0.294016 -0.521672
vn 0.800883 0.294016 -0.521672
vn 0.800883 0.294016 -0.521672
vn 0.570093 0.821456 -0.014295
vn 0.570093 0.821456 -0.014295
vn 0.570093 0.821456 -0.014295
vn 0.570093 0.821456 -0.014295
vn -0.928941 0.001340 0.370227
vn -0.928941 0.001340 0.370227
vn -0.511110 0.859107 -0.026475
vn -0.511110 0.859107 -0.026475
vn -0.854023 0.320400 -0.409864
vn -0.854023 0.320400 -0.409864
vn -0.854023 0.320400 -0.409864
vn -0.854023 0.320400 -0.409864
vn -0.292597 -0.956140 0.013525
vn -0.292597 -0.956140 0.013525
vn -0.292597 -0.956140 0.013525
vn -0.292597 -0.956140 0.013525
vn 0.000000 0.000000 0.000000
vn 0.000000 0.000000 0.000000
vn 0.000000 0.000000 0.000000
vn 0.000000 0.000000 0.000000
vn 0.000000 0.000000 0.000000
vn 0.000000 0.000000 0.000000
vn 0.000000 0.000000 0.000000
vn 0.000000 0.000000 0.000000
vn 0.000000 0.000000 0.000000
vn 0.000000 0.000000 0.000000
vn 0.000000 0.000000 0.000000
vn 0.000000 0.000000 0.000000
vn 0.000000 0.000000 0.000000
vn 0.000000 0.000000 0.000000
vn 0.000000 0.000000 0.000000
vn 0.000000 0.000000 0.000000
vn -0.000000 -0.989211 0.146496
vn -0.000000 -0.989211 0.146496
vn 0.000000 -0.933848 0.357670
vn 0.000000 -0.933848 0.357670
vn 0.997087 0.000000 0.076272
vn 0.997087 0.000000 0.076272
vn 0.997087 0.000000 0.076272
vn 0.997087 0.000000 0.076272
vn 0.189999 0.981680 -0.014340
vn -0.189999 0.981680 -0.014340
vn -0.181343 0.983308 -0.014856
vn 0.181343 0.983308 -0.014856
vn -0.997087 0.000000 0.076272
vn -0.997087 0.000000 0.076272
vn -0.997087 0.000000 0.076272
vn -0.997087 0.000000 0.076272
vn 0.000000 -0.025220 -0.999682
vn 0.000000 -0.025220 -0.999682
vn 0.000000 -0.025220 -0.999682
vn 0.000000 -0.025220 -0.999682
vn -0.432048 0.901850 0.000957
vn -0.432048 0.901850 0.000957
vn 0.000000 0.025218 0.999682
vn 0.000000 0.025218 0.999682
vn 0.432048 0.901850 0.000956
vn 0.432048 0.901850 0.000956
vn -0.000000 -0.999975 -0.007095
vn -0.000000 -0.999975 -0.007095
vn 0.829078 -0.514265 0.219455
vn 0.829079 -0.514265 0.219455
vn 0.829078 -0.514265 0.219455
vn 0.829079 -0.514265 0.219455
vn 0.000000 -0.856047 0.516897
vn 0.000000 -0.856047 0.516897
vn -0.829078 -0.514265 0.219455
vn -0.829078 -0.514265 0.219455
vn -0.829078 -0.514265 0.219455
vn -0.829078 -0.514265 0.219455
vn 0.000000 0.000000 0.000000
vn 0.000000 0.000000 0.000000
vn 0.000000 0.000000 0.000000
vn 0.000000 0.000000 0.000000
vn 0.000000 0.000000 0.000000
vn 0.000000 0.000000 0.000000
vn 0.000000 0.000000 0.000000
vn 0.000000 0.000000 0.000000
vn 0.000000 0.000000 0.000000
vn 0.000000 0.000000 0.000000
vn 0.000000 0.000000 0.000000
vn 0.000000 0.000000 0.000000
vn 0.000000 0.000000 0.000000
vn 0.000000 0.000000 0.000000
vn 0.000000 0.000000 0.000000
vn 0.000000 0.000000 0.000000
vn -0.000000 0.993356 0.115086
vn -0.000000 0.993356 0.115086
vn -0.000000 0.993356 0.115086
vn -0.000000 0.993356 0.115086
vn -0.946717 -0.318258 -0.049379
vn -0.946717 -0.318258 -0.049379
vn -0.946717 -0.318258 -0.049379
vn -0.946717 -0.318258 -0.049379
vn 0.000000 -0.973525 -0.228583
vn 0.000000 -0.973525 -0.228583
vn 0.818018 -0.568393 -0.088189
vn 0.818018 -0.568393 -0.088189
vn 0.818018 -0.568393 -0.088189
vn 0.818018 -0.568393 -0.088189
s 1
g pCube1
usemtl initialShadingGroup
f 53/71/1 54/72/2 55/73/3 56/74/4
s 2
f 3/3/5 4/4/6 6/6/7 5/5/8
f 9/15/9 10/16/10 11/17/11 12/18/12
s off
f 7/7/13 8/8/14 2/10/15 1/9/16
f 30/47/17 29/48/18 31/49/19 32/50/20
f 25/43/21 26/44/22 27/45/23 28/46/24
s 2
f 33/51/25 34/52/26 35/53/27 36/54/28
s off
f 41/59/29 42/60/30 43/61/31 44/62/32
s 4
f 70/87/33 69/88/34 71/89/35 72/90/36
s 5
f 46/63/37 45/64/38 47/65/39 48/66/40
s off
f 7/19/41 1/20/42 14/21/43 13/22/44
f 3/23/45 5/24/46 16/25/47 15/26/48
s 6
f 4/27/49 6/28/50 18/29/51 17/30/52
s off
f 8/31/53 2/32/54 20/33/55 19/34/56
s 6
f 17/35/52 18/36/51 22/37/57 21/38/58
s off
f 5/39/59 7/40/60 24/41/61 23/42/62
f 7/13/63 1/1/64 26/44/65 25/43/66
f 1/1/67 3/3/68 27/45/69 26/44/70
f 3/3/71 5/14/72 28/46/73 27/45/74
f 5/14/75 7/13/76 25/43/77 28/46/78
f 2/2/79 8/11/80 29/48/81 30/47/82
f 8/11/83 6/12/84 31/49/85 29/48/86
f 6/12/87 4/4/88 32/50/89 31/49/90
f 4/4/91 2/2/92 30/47/93 32/50/94
s 2
f 5/5/8 6/6/7 34/52/26 33/51/25
f 6/6/7 10/16/10 35/53/27 34/52/26
f 10/16/10 9/15/9 36/54/28 35/53/27
f 9/15/9 5/5/8 33/51/25 36/54/28
s off
f 6/6/95 8/8/96 38/56/97 37/55/98
f 8/8/99 11/17/100 39/57/101 38/56/102
f 11/17/103 10/16/104 40/58/105 39/57/106
f 10/16/107 6/6/108 37/55/109 40/58/110
f 37/55/111 38/56/112 42/60/113 41/59/114
f 38/56/115 39/57/116 43/61/117 42/60/118
f 39/57/119 40/58/120 44/62/121 43/61/122
f 40/58/123 37/55/124 41/59/125 44/62/126
s 5
f 7/7/127 5/5/128 45/64/38 46/63/37
s 2
f 5/5/8 9/15/9 47/65/129 45/64/130
s off
f 9/15/131 12/18/132 48/66/133 47/65/134
f 12/18/135 7/7/136 46/63/137 48/66/138
f 1/1/139 2/2/140 50/68/141 49/67/142
f 2/2/143 4/4/144 51/69/145 50/68/146
f 4/4/147 3/3/148 52/70/149 51/69/150
f 3/3/151 1/1/152 49/67/153 52/70/154
s 7
f 61/79/155 62/80/156 63/81/157 64/82/158
s off
f 50/68/159 51/69/160 55/73/161 54/72/162
s 8
f 58/75/163 57/76/164 59/77/165 60/78/166
s off
f 52/70/167 49/67/168 53/71/169 56/74/170
f 51/69/171 52/70/172 57/76/173 58/75/174
s 8
f 52/70/175 56/74/176 59/77/165 57/76/164
s 1
f 56/74/4 55/73/3 60/78/177 59/77/178
s 8
f 55/73/179 51/69/180 58/75/163 60/78/166
s 7
f 49/67/181 50/68/182 62/80/156 61/79/155
s off
f 50/68/183 54/72/184 63/81/185 62/80/186
s 7
f 54/72/187 53/71/188 64/82/158 63/81/157
s off
f 53/71/189 49/67/190 61/79/191 64/82/192
f 8/8/193 7/7/194 65/84/195 66/83/196
f 7/7/197 12/18/198 67/85/199 65/84/200
f 12/18/201 11/17/202 68/86/203 67/85/204
f 11/17/205 8/8/206 66/83/207 68/86/208
f 66/83/209 65/84/210 69/88/211 70/87/212
f 65/84/213 67/85/214 71/89/215 69/88/216
s 4
f 67/85/217 68/86/218 72/90/36 71/89/35
s off
f 68/86/219 66/83/220 70/87/221 72/90/222
